<svg xmlns="http://www.w3.org/2000/svg" viewBox="0 0 51.2 58.23"><title>logo-lt-sm</title><g id="Layer_2" data-name="Layer 2"><g id="Layer_1-2" data-name="Layer 1"><g id="_Group_" data-name=" Group "><path id="_Path_" data-name=" Path " d="M21.24,27.27,24.11,30a3.36,3.36,0,0,1,2.26-.87,3.43,3.43,0,0,1,3.42,3.41A3.39,3.39,0,0,1,29,34.79l2.6,2.52,8-18Z" style="fill:#fff"/><path id="_Path_2" data-name=" Path 2" d="M26.37,36A3.42,3.42,0,0,1,23,32.6,3.37,3.37,0,0,1,24.11,30l-2.87-2.79L13.13,45.94l18.44-8.63L29,34.79A3.34,3.34,0,0,1,26.37,36Z" style="fill:#6fcce2"/></g><path id="_Compound_Path_" data-name=" Compound Path " d="M28.55,7.19a4.2,4.2,0,1,0-5.94,0l.05,0a25.59,25.59,0,1,0,5.89,0ZM25.6,1.93a2.28,2.28,0,1,1-2.28,2.28A2.29,2.29,0,0,1,25.6,1.93Zm1.68,52.32L25.6,50.19l-1.67,4.06A21.74,21.74,0,0,1,4,34.94l4.48-1.85L3.94,31.2A21.76,21.76,0,0,1,23.54,11l2.06,5,2.07-5a21.76,21.76,0,0,1,19.6,20.21l-4.56,1.86,4.48,1.85A21.74,21.74,0,0,1,27.28,54.25Z" style="fill:#fff"/></g></g></svg>