<svg xmlns="http://www.w3.org/2000/svg" viewBox="0 0 51.19 58.18"><defs><style>.cls-1{fill:#dd3240;}.cls-2{fill:#6fcce2;}.cls-3{fill:#0b384c;}</style></defs><title>logo-sm</title><g id="Layer_2" data-name="Layer 2"><g id="Layer_1-2" data-name="Layer 1"><g id="_Group_" data-name="&lt;Group&gt;"><path id="_Path_" data-name="&lt;Path&gt;" class="cls-1" d="M21.23,27.25,24.1,30a3.36,3.36,0,0,1,2.26-.87,3.42,3.42,0,0,1,3.42,3.41A3.38,3.38,0,0,1,29,34.77l2.6,2.52,8-18Z"/><path id="_Path_2" data-name="&lt;Path&gt;" class="cls-2" d="M26.36,36a3.42,3.42,0,0,1-3.42-3.42A3.37,3.37,0,0,1,24.1,30l-2.87-2.79L13.12,45.92l18.44-8.63L29,34.77A3.36,3.36,0,0,1,26.36,36Z"/></g><path id="_Compound_Path_" data-name="&lt;Compound Path&gt;" class="cls-3" d="M28.54,7.17a4.2,4.2,0,1,0-5.89,0,25.6,25.6,0,1,0,5.89,0ZM25.59,1.91a2.28,2.28,0,1,1-2.28,2.28A2.28,2.28,0,0,1,25.59,1.91Zm1.68,52.32-1.68-4.06-1.67,4.06A21.75,21.75,0,0,1,4,34.92l4.48-1.85L3.93,31.18A21.75,21.75,0,0,1,23.53,11l2.06,5,2.07-5a21.75,21.75,0,0,1,19.6,20.21L42.7,33.07l4.48,1.85A21.75,21.75,0,0,1,27.27,54.23Z"/></g></g></svg>