<svg xmlns="http://www.w3.org/2000/svg" viewBox="0 0 462.09 58.18"><defs><style>.cls-1{fill:#dd3240;}.cls-2{fill:#43aeca;}.cls-3{fill:#022f48;}</style></defs><title>Asset 2</title><g id="Layer_2" data-name="Layer 2"><g id="Layer_1-2" data-name="Layer 1"><g id="_Group_" data-name="&lt;Group&gt;"><path id="_Path_" data-name="&lt;Path&gt;" class="cls-1" d="M21.23,27.25,24.1,30a3.36,3.36,0,0,1,2.26-.87,3.42,3.42,0,0,1,3.42,3.41A3.38,3.38,0,0,1,29,34.77l2.6,2.52,8-18Z"/><path id="_Path_2" data-name="&lt;Path&gt;" class="cls-2" d="M26.36,36a3.42,3.42,0,0,1-3.42-3.42A3.37,3.37,0,0,1,24.1,30l-2.87-2.79L13.12,45.92l18.44-8.63L29,34.77A3.36,3.36,0,0,1,26.36,36Z"/></g><path id="_Compound_Path_" data-name="&lt;Compound Path&gt;" class="cls-3" d="M28.54,7.17a4.2,4.2,0,1,0-5.89,0,25.6,25.6,0,1,0,5.89,0ZM25.59,1.91a2.28,2.28,0,1,1-2.28,2.28A2.28,2.28,0,0,1,25.59,1.91Zm1.68,52.32-1.68-4.06-1.67,4.06A21.75,21.75,0,0,1,4,34.92l4.48-1.85L3.93,31.18A21.75,21.75,0,0,1,23.53,11l2.06,5,2.07-5a21.75,21.75,0,0,1,19.6,20.21L42.7,33.07l4.48,1.85A21.75,21.75,0,0,1,27.27,54.23Z"/><path class="cls-3" d="M84.18,45.19h-7.5V26.71A4.49,4.49,0,0,0,75.1,22.9a5.69,5.69,0,0,0-3.53-1.2,5.45,5.45,0,0,0-3.48,1.2,4.54,4.54,0,0,0-1.52,3.81V45.19H59v-17q0-7.39,3.86-9.9a16.83,16.83,0,0,1,8.53-2.71,22.23,22.23,0,0,1,4.9.54,10.29,10.29,0,0,1,4.34,2.17,9.7,9.7,0,0,1,3.86-2,22,22,0,0,1,4.63-.7,16.33,16.33,0,0,1,8.8,2.5q4,2.5,4,10.11v17H98.1a3.57,3.57,0,0,1-2.66-1,3.62,3.62,0,0,1-1-2.67V26.71a4.48,4.48,0,0,0-1.57-3.81,5.81,5.81,0,0,0-7.07,0,4.49,4.49,0,0,0-1.58,3.81V45.19Z"/><path class="cls-3" d="M106.71,55.41v-6h2.07a5.19,5.19,0,0,0,3.42-1c.84-.69,1-1.8.49-3.32L102.58,16.27H111l5.87,20.44,5.11-17.83a3.22,3.22,0,0,1,3.48-2.61h5.22L119.54,49.21a11.1,11.1,0,0,1-3.26,5.11q-1.95,1.3-6.41,1.31h-1.53a3.86,3.86,0,0,0-.81-.16A7,7,0,0,0,106.71,55.41Z"/><path class="cls-1" d="M140.42,10.89v8.7a9,9,0,0,1,3.48-3.37,9.63,9.63,0,0,1,4.78-1.09,10.09,10.09,0,0,1,8.37,4.24q3.27,4.24,3.27,11t-3.27,11a9,9,0,0,1-4.4,3,17.2,17.2,0,0,1-5.49.93,18.27,18.27,0,0,1-9.68-2.72Q133,39.82,133,32.09V7.19h3.7a3.72,3.72,0,0,1,3.7,3.7ZM152.81,30a10,10,0,0,0-1.63-6.09,5.2,5.2,0,0,0-4.46-2.29,5.49,5.49,0,0,0-4.67,2.18,10.46,10.46,0,0,0-1.63,6.2c0,3,.5,5.25,1.52,6.63a5.3,5.3,0,0,0,4.57,2.28,5.4,5.4,0,0,0,4.67-2.28Q152.82,34.38,152.81,30Z"/><path class="cls-1" d="M165.21,42.1A10.79,10.79,0,0,1,162,36.82a24,24,0,0,1-1-6.9,21.92,21.92,0,0,1,.81-5.87,12.24,12.24,0,0,1,2.56-4.9,11.3,11.3,0,0,1,7.28-3.86,16.88,16.88,0,0,1,8,.71,11.13,11.13,0,0,1,6.09,5.65A18.12,18.12,0,0,1,187.61,30a21,21,0,0,1-.76,6,15.28,15.28,0,0,1-2,4.24,10.88,10.88,0,0,1-6.63,4.46,14.87,14.87,0,0,1-7.23.16A12.76,12.76,0,0,1,165.21,42.1ZM170.43,23q-2.28,2.5-2.07,7.45c.15,3.3.76,5.6,1.85,6.9a4.89,4.89,0,0,0,2.28,1.47,5.24,5.24,0,0,0,3.32.11,5.57,5.57,0,0,0,3-2.45q1.3-1.95,1.41-6.3A11.13,11.13,0,0,0,179,24.26a5.68,5.68,0,0,0-2.88-2.5,5.27,5.27,0,0,0-3.26-.05A5.49,5.49,0,0,0,170.43,23Z"/><path class="cls-1" d="M192.39,42.1a10.79,10.79,0,0,1-3.26-5.28,24.33,24.33,0,0,1-1-6.9,21.54,21.54,0,0,1,.82-5.87,12.11,12.11,0,0,1,2.55-4.9,11.32,11.32,0,0,1,7.29-3.86,16.84,16.84,0,0,1,8,.71,11.06,11.06,0,0,1,6.09,5.65A18.12,18.12,0,0,1,214.79,30a21,21,0,0,1-.76,6,15.28,15.28,0,0,1-2,4.24,10.88,10.88,0,0,1-6.63,4.46,14.87,14.87,0,0,1-7.23.16A12.76,12.76,0,0,1,192.39,42.1ZM197.61,23q-2.28,2.5-2.07,7.45t1.85,6.9a4.93,4.93,0,0,0,2.29,1.47,5.21,5.21,0,0,0,3.31.11,5.54,5.54,0,0,0,3-2.45q1.31-1.95,1.42-6.3a11.13,11.13,0,0,0-1.25-5.88,5.74,5.74,0,0,0-2.89-2.5,5.26,5.26,0,0,0-3.26-.05A5.61,5.61,0,0,0,197.61,23Z"/><path class="cls-1" d="M223.6,15.78V26.44l9.24-10.66H242L231.64,26.87l10.44,17.84H233l-5.33-9.79Q226,32,224.79,32.42c-.8.29-1.19.72-1.19,1.3v11H216V7.3h3.91a3.6,3.6,0,0,1,2.61,1.09,3.45,3.45,0,0,1,1.09,2.5Z"/><path class="cls-1" d="M244,7.3H248a3.57,3.57,0,0,1,2.61,1.09A3.53,3.53,0,0,1,251.65,11v2.28H244Zm0,8.48H248a3.72,3.72,0,0,1,3.7,3.7V44.71H244Z"/><path class="cls-1" d="M278.59,44.71h-3.8a3.55,3.55,0,0,1-3.7-3.7V26.22a4.45,4.45,0,0,0-1.58-3.8,5.67,5.67,0,0,0-3.53-1.2,5.45,5.45,0,0,0-3.48,1.2,4.51,4.51,0,0,0-1.52,3.8V44.71h-7.61v-17q0-7.39,3.86-9.89a16.84,16.84,0,0,1,8.53-2.72,16.43,16.43,0,0,1,8.81,2.5q4,2.51,4,10.11Z"/><path class="cls-1" d="M298.93,43V41.12a8.31,8.31,0,0,1-5.28,3.8,10.8,10.8,0,0,1-6.58-.54,12.22,12.22,0,0,1-5.6-4.84,16.64,16.64,0,0,1-2.33-9.3q0-6.73,3.1-10.92t9.94-4.19A17.69,17.69,0,0,1,301.86,18q4.45,2.82,4.46,10.44V43.73q0,7.6-4.46,10.38a18,18,0,0,1-9.68,2.77q-10,0-12.39-9.35h7.94a5.57,5.57,0,0,0,2.66,2.34,5.71,5.71,0,0,0,3.59.44,6,6,0,0,0,3.26-2.13A8.84,8.84,0,0,0,298.93,43Zm-12.4-12.51q0,7.5,4.35,8.32t6.41-2A8,8,0,0,0,298.71,33a15.63,15.63,0,0,0,.05-5.06A10.08,10.08,0,0,0,297,23.5a4.78,4.78,0,0,0-4.13-1.95c-2.47,0-4.13.9-5,2.71A14.18,14.18,0,0,0,286.53,30.46Z"/><path class="cls-3" d="M308.91,36h7.4a4,4,0,0,0,1.63,3.27,7.78,7.78,0,0,0,4.35,1.08,7,7,0,0,0,3.37-.76,2.29,2.29,0,0,0,1.3-2.06q0-2-4.56-2.94a20.69,20.69,0,0,1-2.94-.65c-3.84-.94-6.41-2.07-7.72-3.37a6.69,6.69,0,0,1-2.17-5.22,8.67,8.67,0,0,1,3.15-6.85A13.52,13.52,0,0,1,321.2,16q5.66,0,9,2.5a9.59,9.59,0,0,1,3.37,7.07h-4.68a3.45,3.45,0,0,1-3.15-1.85l-.87-.87a5.89,5.89,0,0,0-3.59-1,6.5,6.5,0,0,0-3.26.65,2.21,2.21,0,0,0-1,2q0,1.74,5.65,2.93a10.73,10.73,0,0,0,1.14.33,4.52,4.52,0,0,0,.93.11q5.55,1.41,7.72,3.26a6.89,6.89,0,0,1,2.06,5.22,8.68,8.68,0,0,1-3.48,7.39q-3.25,2.4-9.78,2.4c-4.13,0-7.21-.84-9.24-2.5a8.74,8.74,0,0,1-3.16-7.29Z"/><path class="cls-3" d="M354.21,24.84a5.19,5.19,0,0,0-4.46-2.29,5.51,5.51,0,0,0-4.68,2.18,9.81,9.81,0,0,0-1.63,6V45.6h-7.39V8.2h3.7a3.7,3.7,0,0,1,3.69,3.7v8.59A8.65,8.65,0,0,1,349,16.35a11,11,0,0,1,6.85.44A12.27,12.27,0,0,1,361,20.92Q363,23.75,363,28.75V45.6h-7.28v-15a15.38,15.38,0,0,0-.27-3A7.46,7.46,0,0,0,354.21,24.84Z"/><path class="cls-3" d="M384.71,36.69h5.44a11.9,11.9,0,0,1-4.57,7,13.89,13.89,0,0,1-8.48,2.5q-6.19,0-9.68-4T364,30.92q0-6.95,3.37-10.87T377,16q6.52,0,10.12,3.91t3.47,11.2v1.2a2,2,0,0,1-.1.76H371.67a7.45,7.45,0,0,0,1.63,5,5.13,5.13,0,0,0,4.24,1.74,6.12,6.12,0,0,0,3.15-.76,1.49,1.49,0,0,0,.6-.38l.6-.6a2.29,2.29,0,0,1,.81-.87A3.25,3.25,0,0,1,384.71,36.69Zm-13-8.48h11.09a7.06,7.06,0,0,0-1.53-4.35,5.19,5.19,0,0,0-4-1.53,5.27,5.27,0,0,0-3.91,1.53A6.19,6.19,0,0,0,371.67,28.21Z"/><path class="cls-3" d="M392.06,45.6v-14a17.85,17.85,0,0,1,1.25-7.13,11.75,11.75,0,0,1,3.42-4.62,13.63,13.63,0,0,1,4.84-2.39,21.36,21.36,0,0,1,5.71-.76h1.09V24.4h-2.5a6.39,6.39,0,0,0-4.68,1.52,6.57,6.57,0,0,0-1.52,4.79V45.6Z"/><path class="cls-3" d="M416.8,52.56a3.72,3.72,0,0,1-3.69,3.7h-3.7V29.18q0-7.6,4.46-10.38A17.94,17.94,0,0,1,423.54,16a15.58,15.58,0,0,1,5.49,1,10.32,10.32,0,0,1,4.41,3,17.35,17.35,0,0,1,3.26,10.87q0,6.86-3.26,11.1a10.22,10.22,0,0,1-8.37,4.13,11.1,11.1,0,0,1-4.79-1,8.23,8.23,0,0,1-3.48-3.37Zm12.4-21.31a11.15,11.15,0,0,0-1.63-6.52,5.39,5.39,0,0,0-4.68-2.29,5.28,5.28,0,0,0-4.57,2.29c-1,1.37-1.52,3.55-1.52,6.52,0,2.76.55,4.82,1.63,6.2a5.41,5.41,0,0,0,4.68,2.28,5.2,5.2,0,0,0,4.46-2.28A10.53,10.53,0,0,0,429.2,31.25Z"/><path class="cls-3" d="M456.77,44.41a13.38,13.38,0,0,1-4.84,1.46,41.27,41.27,0,0,1-4.51.28A11.4,11.4,0,0,1,440.57,44q-2.94-2.13-2.94-7c0-3,.89-5.22,2.66-6.52a15.24,15.24,0,0,1,6.8-2.61,6.18,6.18,0,0,0,1.3-.16c.51-.11,1.09-.2,1.74-.28q4.78-.64,4.79-2.82a2.05,2.05,0,0,0-1.69-2.12,11,11,0,0,0-3.1-.49,7.86,7.86,0,0,0-2.71.43,3,3,0,0,0-1.74,1.63h-7.29a8.38,8.38,0,0,1,3.05-5.54q2.93-2.51,8.37-2.5,6.09,0,9.13,2.06a7,7,0,0,1,3.15,6.09v9.9a12.47,12.47,0,0,1-1.57,6.79A9.7,9.7,0,0,1,456.77,44.41ZM455,31a20.76,20.76,0,0,1-4.24,1.42l-2.5.54a6.37,6.37,0,0,0-2.83,1.41,4.43,4.43,0,0,0-.76,2.4,3.52,3.52,0,0,0,1,2.61,4.1,4.1,0,0,0,2.82.86A6,6,0,0,0,455,33.75Z"/></g></g></svg>