<svg xmlns="http://www.w3.org/2000/svg" viewBox="0 0 230.56 37.81"><defs><style>.cls-1{fill:#3a4072;}.cls-2{fill:#fff;}</style></defs><title>Asset 4</title><g id="Layer_2" data-name="Layer 2"><g id="Layer_2-2" data-name="Layer 2"><rect class="cls-1" width="148.76" height="37.81"/></g><g id="Layer_1-2" data-name="Layer 1"><path class="cls-2" d="M7,30.4A1.82,1.82,0,0,1,6.39,29V7.68A1.82,1.82,0,0,1,7,6.32a1.93,1.93,0,0,1,1.38-.55h7.3q4.38,0,6.5,1.65A5.48,5.48,0,0,1,24.27,12,6,6,0,0,1,23,15.88a5.55,5.55,0,0,1-3.67,1.93v.07a7.15,7.15,0,0,1,4.4,1.93,6,6,0,0,1,1.59,4.39,5.87,5.87,0,0,1-.55,2.5,6.64,6.64,0,0,1-1.61,2.15,7.57,7.57,0,0,1-2.79,1.53A12.38,12.38,0,0,1,16.5,31H8.34A1.93,1.93,0,0,1,7,30.4Zm8-13.91a7,7,0,0,0,4.15-1,3.78,3.78,0,0,0,1.26-3.21A4.08,4.08,0,0,0,20,10.49a2.29,2.29,0,0,0-1.1-1.07A5.5,5.5,0,0,0,17.4,9a12.59,12.59,0,0,0-2-.13h-5v7.67Zm.77,11.37A7.83,7.83,0,0,0,19.92,27c.85-.57,1.27-1.66,1.27-3.29A4.74,4.74,0,0,0,20.9,22a3.13,3.13,0,0,0-.8-1.22A3.76,3.76,0,0,0,18.72,20a10.45,10.45,0,0,0-1.85-.36q-1-.09-2.37-.09H10.37v8.31Z"/><path class="cls-2" d="M31.65,30.51a7.71,7.71,0,0,1-2.82-2,9,9,0,0,1-1.67-2.87,10.3,10.3,0,0,1-.58-3.46,10.52,10.52,0,0,1,.58-3.49,8.86,8.86,0,0,1,1.68-2.87,7.57,7.57,0,0,1,2.82-2,9.81,9.81,0,0,1,3.84-.72,9.24,9.24,0,0,1,4.84,1.23,7.92,7.92,0,0,1,3.06,3.26,10.12,10.12,0,0,1,1,4.56,10.32,10.32,0,0,1-.58,3.45,9,9,0,0,1-1.67,2.88,7.75,7.75,0,0,1-2.81,2,10.52,10.52,0,0,1-7.7,0Zm7.84-3.46a7.49,7.49,0,0,0,1.42-4.85,7.53,7.53,0,0,0-1.44-4.86,4.83,4.83,0,0,0-4-1.78,4.86,4.86,0,0,0-4,1.77,7.59,7.59,0,0,0-1.43,4.87,7.48,7.48,0,0,0,1.44,4.85,4.83,4.83,0,0,0,4,1.78A4.9,4.9,0,0,0,39.49,27.05Z"/><path class="cls-2" d="M50.47,30.51a7.71,7.71,0,0,1-2.82-2A9,9,0,0,1,46,25.66a10.3,10.3,0,0,1-.58-3.46A10.52,10.52,0,0,1,46,18.71a8.86,8.86,0,0,1,1.68-2.87,7.61,7.61,0,0,1,2.81-2,9.88,9.88,0,0,1,3.84-.72,9.25,9.25,0,0,1,4.85,1.23,7.92,7.92,0,0,1,3.06,3.26,10.12,10.12,0,0,1,1,4.56,10.32,10.32,0,0,1-.58,3.45A9,9,0,0,1,61,28.53a7.71,7.71,0,0,1-2.82,2,10.49,10.49,0,0,1-7.69,0Zm7.83-3.46a7.49,7.49,0,0,0,1.43-4.85,7.53,7.53,0,0,0-1.44-4.86,5.35,5.35,0,0,0-8,0A7.59,7.59,0,0,0,48.9,22.2a7.48,7.48,0,0,0,1.44,4.85,5.34,5.34,0,0,0,8,0Z"/><path class="cls-2" d="M65.86,30.49a1.69,1.69,0,0,1-.51-1.31V7.54a1.62,1.62,0,0,1,.52-1.28,1.84,1.84,0,0,1,1.27-.48,1.72,1.72,0,0,1,1.22.48,1.62,1.62,0,0,1,.52,1.28V20.92l7.79-7.33a1.38,1.38,0,0,1,.45-.29,1.27,1.27,0,0,1,.5-.1,1.47,1.47,0,0,1,1.09.49,1.59,1.59,0,0,1,.47,1.11,1.28,1.28,0,0,1-.44,1l-6,5.57,6.72,7.07a1.44,1.44,0,0,1,.44,1,1.49,1.49,0,0,1-.23.77,1.81,1.81,0,0,1-.61.59,1.7,1.7,0,0,1-.81.22,1.44,1.44,0,0,1-.4-.06,1.22,1.22,0,0,1-.39-.17,1.58,1.58,0,0,1-.37-.32l-8.16-8.61v7.33a1.65,1.65,0,0,1-.54,1.3,1.79,1.79,0,0,1-1.25.47A1.76,1.76,0,0,1,65.86,30.49Z"/><path class="cls-1" d="M157,31.46a1.76,1.76,0,0,1-.6-1.42V8.75a1.89,1.89,0,0,1,.59-1.4,2,2,0,0,1,1.43-.58H166q4.36,0,6.67,1.71t2.3,5.58a8.26,8.26,0,0,1-.66,3.45,5.23,5.23,0,0,1-1.93,2.27A8.64,8.64,0,0,1,169.44,21a16.85,16.85,0,0,1-3.82.38h-5.24V30a1.78,1.78,0,0,1-.58,1.42,2.08,2.08,0,0,1-1.4.51A2.11,2.11,0,0,1,157,31.46Zm8.54-13.13a7.21,7.21,0,0,0,4.15-.94A3.82,3.82,0,0,0,171,14.06a3.69,3.69,0,0,0-1.26-3.23,7.14,7.14,0,0,0-4.05-.9h-5.31v8.4Z"/><path class="cls-1" d="M176.9,31.5a1.7,1.7,0,0,1-.51-1.32V8.54a1.63,1.63,0,0,1,.53-1.28,1.8,1.8,0,0,1,1.25-.48,1.77,1.77,0,0,1,1.24.48,1.63,1.63,0,0,1,.53,1.28V30.18a1.65,1.65,0,0,1-.54,1.3,1.87,1.87,0,0,1-1.27.47A1.79,1.79,0,0,1,176.9,31.5Z"/><path class="cls-1" d="M183.64,30.92a4.44,4.44,0,0,1-1.72-3.75,6.67,6.67,0,0,1,.22-1.82,4.65,4.65,0,0,1,.61-1.35,3.09,3.09,0,0,1,1.1-1,8.75,8.75,0,0,1,1.54-.64A12.27,12.27,0,0,1,187.5,22c.86-.08,1.73-.14,2.6-.17s2-.05,3.21-.05V20.07q0-3.55-3.55-3.55a9.94,9.94,0,0,0-2.13.24,12.86,12.86,0,0,0-1.64.45l-1.47.59a1.12,1.12,0,0,1-.44.09,1.2,1.2,0,0,1-.33-.05,1.4,1.4,0,0,1-.3-.15,1.38,1.38,0,0,1-.26-.23,1.73,1.73,0,0,1-.19-.28,1.66,1.66,0,0,1-.12-.31,1.12,1.12,0,0,1,0-.31A1.09,1.09,0,0,1,183,16a1.22,1.22,0,0,1,.44-.4,13.47,13.47,0,0,1,6.47-1.47,7.85,7.85,0,0,1,5.1,1.51,5.72,5.72,0,0,1,1.86,4.71v9.91a1.53,1.53,0,0,1-.52,1.24,1.85,1.85,0,0,1-1.23.45,1.92,1.92,0,0,1-.84-.18,1.68,1.68,0,0,1-.63-.56,1.62,1.62,0,0,1-.26-.91V29a5.41,5.41,0,0,1-5.25,3.22A7.15,7.15,0,0,1,183.64,30.92Zm8.19-2.59a5.65,5.65,0,0,0,1.46-4v-.49c-1.12,0-2.06,0-2.81,0S189,24,188.4,24a6.7,6.7,0,0,0-1.51.34A2.91,2.91,0,0,0,186,25a1.79,1.79,0,0,0-.53.87,4.21,4.21,0,0,0-.14,1.2,2.63,2.63,0,0,0,.86,2.18,3.55,3.55,0,0,0,2.32.71A4.44,4.44,0,0,0,191.83,28.33Z"/><path class="cls-1" d="M202.88,31a7.83,7.83,0,0,1-2.95-3.27,10.18,10.18,0,0,1-1-4.56,9.79,9.79,0,0,1,1-4.54A8.14,8.14,0,0,1,203,15.37a8.64,8.64,0,0,1,4.58-1.22,9.17,9.17,0,0,1,2.81.41,7.53,7.53,0,0,1,2,1,1.4,1.4,0,0,1,.66,1.11,1,1,0,0,1-.15.52,1,1,0,0,1-.4.37,1.2,1.2,0,0,1-.57.13,1.53,1.53,0,0,1-.76-.21,6.4,6.4,0,0,0-3.39-.93,4.78,4.78,0,0,0-3.91,1.82,7.47,7.47,0,0,0-1.47,4.84,9.36,9.36,0,0,0,.56,3.32,5.34,5.34,0,0,0,1.77,2.39,4.61,4.61,0,0,0,2.87.92,6.58,6.58,0,0,0,3.85-1.07,1.19,1.19,0,0,1,.4-.21,1.37,1.37,0,0,1,.39-.06,1.18,1.18,0,0,1,.43.08,1.11,1.11,0,0,1,.34.22.89.89,0,0,1,.23.34,1.25,1.25,0,0,1,.08.42,1.32,1.32,0,0,1-.15.58,1.85,1.85,0,0,1-.47.56,8.19,8.19,0,0,1-5.36,1.55A8.3,8.3,0,0,1,202.88,31Z"/><path class="cls-1" d="M216.54,29.75a9,9,0,0,1-2.45-6.67,10,10,0,0,1,.57-3.39,9,9,0,0,1,1.63-2.84,7.28,7.28,0,0,1,2.68-2,8.66,8.66,0,0,1,3.61-.73,8.93,8.93,0,0,1,3.58.68,6.34,6.34,0,0,1,2.48,1.88A8.83,8.83,0,0,1,230,19.4a10.78,10.78,0,0,1,.52,3.24,1.53,1.53,0,0,1-.28.95,1,1,0,0,1-.84.37H217.66a6,6,0,0,0,1.56,4.34,5.62,5.62,0,0,0,3.92,1.46,6.36,6.36,0,0,0,2.64-.54,13.47,13.47,0,0,0,2.44-1.45,1.67,1.67,0,0,1,.35-.18.93.93,0,0,1,.89.1,1.19,1.19,0,0,1,.41.45,1.27,1.27,0,0,1,.15.6,1.34,1.34,0,0,1-.14.58,1.31,1.31,0,0,1-.41.51,9.6,9.6,0,0,1-6.57,2.41A8.79,8.79,0,0,1,216.54,29.75Zm11-7.94A6.65,6.65,0,0,0,226.17,18a4.12,4.12,0,0,0-3.43-1.48,5,5,0,0,0-2.11.44,4.4,4.4,0,0,0-1.56,1.22,6,6,0,0,0-.94,1.68,7.18,7.18,0,0,0-.44,1.91Z"/><path class="cls-2" d="M88.18,20.85,80.4,8.75a1.59,1.59,0,0,1-.13-.22l-.09-.22a1.6,1.6,0,0,1-.05-.21,1.49,1.49,0,0,1,0-.21,1.14,1.14,0,0,1,.07-.41,1.61,1.61,0,0,1,.16-.38,2,2,0,0,1,.25-.33,1.43,1.43,0,0,1,.32-.28,2.48,2.48,0,0,1,.38-.22,2.58,2.58,0,0,1,.42-.13,2.09,2.09,0,0,1,.43,0,1.9,1.9,0,0,1,1.67,1L90.4,17.74,97.09,6.93A1.72,1.72,0,0,1,98.62,6a1.94,1.94,0,0,1,.63.11,1.84,1.84,0,0,1,.54.32,1.47,1.47,0,0,1,.38.48,1.39,1.39,0,0,1,.14.6,1.7,1.7,0,0,1-.3.93L92.17,20.71V29.3a1.89,1.89,0,0,1-.3,1.07,1.82,1.82,0,0,1-.73.65,2.4,2.4,0,0,1-1,.2,2.11,2.11,0,0,1-1.4-.5,1.78,1.78,0,0,1-.59-1.42Z"/><path class="cls-2" d="M101.22,30.79a7.75,7.75,0,0,1-2.81-2,8.84,8.84,0,0,1-1.67-2.87,10.05,10.05,0,0,1-.58-3.46A10.27,10.27,0,0,1,96.74,19a8.86,8.86,0,0,1,1.68-2.87,7.61,7.61,0,0,1,2.81-2,9.88,9.88,0,0,1,3.84-.72,9.25,9.25,0,0,1,4.85,1.23A7.92,7.92,0,0,1,113,17.92a10.12,10.12,0,0,1,1,4.56,10.43,10.43,0,0,1-.58,3.46,9,9,0,0,1-1.67,2.87,7.71,7.71,0,0,1-2.82,2,10.52,10.52,0,0,1-7.7,0Zm7.84-3.46a7.49,7.49,0,0,0,1.43-4.85,7.53,7.53,0,0,0-1.44-4.86,5.35,5.35,0,0,0-8,0,7.59,7.59,0,0,0-1.43,4.87,7.48,7.48,0,0,0,1.44,4.85,5.34,5.34,0,0,0,8,0Z"/><path class="cls-2" d="M117.32,29.82a6.74,6.74,0,0,1-1.77-5.09V15.42a1.57,1.57,0,0,1,.53-1.26,1.86,1.86,0,0,1,1.25-.45,1.84,1.84,0,0,1,1.24.45,1.6,1.6,0,0,1,.52,1.26v9.35a4.65,4.65,0,0,0,1,3.23,3.51,3.51,0,0,0,2.74,1.11,4.46,4.46,0,0,0,3.35-1.46,5.7,5.7,0,0,0,1.45-3.9V15.42a1.54,1.54,0,0,1,.53-1.26,1.87,1.87,0,0,1,1.26-.45,1.82,1.82,0,0,1,1.24.45,1.57,1.57,0,0,1,.52,1.26V29.57a1.54,1.54,0,0,1-.53,1.23,1.92,1.92,0,0,1-1.26.44,1.85,1.85,0,0,1-1.24-.43,1.41,1.41,0,0,1-.52-1.17V28.37a5,5,0,0,1-2.22,2.33,7.31,7.31,0,0,1-3.51.82A6.34,6.34,0,0,1,117.32,29.82Z"/><path class="cls-2" d="M134.14,30.81a1.55,1.55,0,0,1-.51-1.24V15.36a1.46,1.46,0,0,1,.54-1.2,1.9,1.9,0,0,1,1.25-.43,2.35,2.35,0,0,1,.54.06,1.78,1.78,0,0,1,.47.19,1.72,1.72,0,0,1,.39.31,1.24,1.24,0,0,1,.26.43,1.45,1.45,0,0,1,.1.55l0,2.17a5.22,5.22,0,0,1,1.78-2.75,4.81,4.81,0,0,1,3.12-1.1,1.17,1.17,0,0,1,1,.45,1.72,1.72,0,0,1,.36,1.09,1.67,1.67,0,0,1-.32,1,1.06,1.06,0,0,1-.9.42,5.57,5.57,0,0,0-3.66,1.09A4,4,0,0,0,137.18,21v8.6a1.52,1.52,0,0,1-.54,1.23,2,2,0,0,1-1.27.44A1.88,1.88,0,0,1,134.14,30.81Z"/></g></g></svg>