<svg xmlns="http://www.w3.org/2000/svg" viewBox="0 0 500 500"><title>diet-yellow</title><g id="Layer_2" data-name="Layer 2"><g id="Layer_1-2" data-name="Layer 1"><path d="M250,0C111.9,0,0,111.9,0,250S111.9,500,250,500,500,388.1,500,250,388.1,0,250,0Z" style="fill:#ffc105"/><path d="M230.09,79.66a5.86,5.86,0,0,0-5.84-5.3H224a5.87,5.87,0,0,0-5.87,5.87v72.2a5.56,5.56,0,0,1-10.84,2.48,5.47,5.47,0,0,1,0-2.48V80.23a5.88,5.88,0,0,0-11.75,0v72.2a5.56,5.56,0,1,1-10.84,0V80.23a5.87,5.87,0,0,0-11.74,0v72.2a5.56,5.56,0,1,1-10.84,0V80.23a5.87,5.87,0,0,0-5.87-5.87h-.29a5.88,5.88,0,0,0-5.85,5.3l-3.9,40c-4.07,41.74-1.29,58.74,14.56,74.77A49.62,49.62,0,0,1,177.07,232c-.65,55.56-16.55,116.14-6.92,180.94,2.54,17.15,9.62,22.69,19.93,22.69S207.47,430.12,210,413c9.63-64.8-6.27-125.38-6.92-180.94a49.61,49.61,0,0,1,16.33-37.55c15.86-16,18.64-33,14.57-74.77Z" style="fill:#fff"/><path d="M324.51,77c-6.35,4.14-30,20.31-38.5,62.59C272.71,206,290.34,250.35,305.18,265c11.33,11.21,8.06,20.06,4.44,40.52C301.29,352.66,289.29,408,305.93,428a20.63,20.63,0,0,0,14.49,7.61c9.44,0,17.09-5.71,17.09-24.29V81.54C337.51,75.39,332.87,71.51,324.51,77Z" style="fill:#fff"/></g></g></svg>