<svg xmlns="http://www.w3.org/2000/svg" viewBox="0 0 90 90"><title>medical-red</title><g id="Layer_2" data-name="Layer 2"><g id="Layer_1-2" data-name="Layer 1"><path d="M66.2,37.5H57.9v8h11c.6,0,.9-.3.9-.8L67,38A.75.75,0,0,0,66.2,37.5Z" style="fill:#ff0017"/><path d="M45,0A45,45,0,1,0,90,45,45.07,45.07,0,0,0,45,0ZM30.7,62.7A4.7,4.7,0,1,1,35.4,58,4.69,4.69,0,0,1,30.7,62.7Zm29.2,0A4.7,4.7,0,1,1,64.6,58,4.69,4.69,0,0,1,59.9,62.7Zm12-6.6a1.5,1.5,0,0,1-1.7,1.6H66.3a6.37,6.37,0,0,0-6.4-6,6.44,6.44,0,0,0-6.4,6H37.1a6.37,6.37,0,0,0-6.4-6,6.44,6.44,0,0,0-6.4,6H18V29a1.69,1.69,0,0,1,1.7-1.7H50.4A1.69,1.69,0,0,1,52.1,29v6h6.2v-.1a2,2,0,1,1,4,0V35h4a1.51,1.51,0,0,1,1.4.9l3.6,8.8a6.87,6.87,0,0,1,.5,2.4v9Z" style="fill:#ff0017"/><polygon points="36.8 32.8 33.4 32.8 33.4 38.4 27.9 38.4 27.9 41.8 33.4 41.8 33.4 47.4 36.8 47.4 36.8 41.8 42.4 41.8 42.4 38.4 36.8 38.4 36.8 32.8" style="fill:#ff0017"/></g></g></svg>